<?xml version="1.0" encoding="UTF-8"?>
<!DOCTYPE svg PUBLIC "-//W3C//DTD SVG 1.1//EN" "http://www.w3.org/Graphics/SVG/1.1/DTD/svg11.dtd">
<svg xmlns="http://www.w3.org/2000/svg" version="1.1" width="144px" height="144px" style="shape-rendering:geometricPrecision; text-rendering:geometricPrecision; image-rendering:optimizeQuality; fill-rule:evenodd; clip-rule:evenodd" xmlns:xlink="http://www.w3.org/1999/xlink">
<g><path style="opacity:1" fill="#3485d9" d="M -0.5,-0.5 C 47.5,-0.5 95.5,-0.5 143.5,-0.5C 143.5,47.5 143.5,95.5 143.5,143.5C 95.5,143.5 47.5,143.5 -0.5,143.5C -0.5,95.5 -0.5,47.5 -0.5,-0.5 Z"/></g>
<g><path style="opacity:1" fill="#f4f8fc" d="M 46.5,9.5 C 52.5629,8.83772 58.2296,10.0044 63.5,13C 68.3333,16.5 72.5,20.6667 76,25.5C 82.0196,21.6816 88.1863,21.515 94.5,25C 103.877,28.3788 110.711,34.5455 115,43.5C 116.178,47.8797 117.512,52.2131 119,56.5C 138.744,87.2048 133.244,112.372 102.5,132C 90.3738,135.196 80.5405,131.696 73,121.5C 64.6667,109.5 56.3333,97.5 48,85.5C 39,74.5 30,63.5 21,52.5C 17.8276,48.1591 15.1609,43.4924 13,38.5C 12.3333,34.1667 12.3333,29.8333 13,25.5C 16.3494,21.567 20.516,18.7337 25.5,17C 32.7122,14.7651 39.7122,12.2651 46.5,9.5 Z"/></g>
<g><path style="opacity:1" fill="#3786d9" d="M 43.5,15.5 C 55.8412,13.6889 65.3412,18.0222 72,28.5C 79.8663,40.1013 83.6996,52.9347 83.5,67C 82.5096,80.2003 81.6763,93.367 81,106.5C 81.3223,116.834 86.489,121.334 96.5,120C 99.1059,118.062 100.939,115.562 102,112.5C 102.333,107.5 102.667,102.5 103,97.5C 103.777,95.7852 105.11,94.7852 107,94.5C 109.137,95.0767 111.304,95.41 113.5,95.5C 112.78,89.8839 110.78,84.7172 107.5,80C 108.448,79.5172 109.448,79.3505 110.5,79.5C 111.412,75.8694 111.579,72.2027 111,68.5C 110.62,61.9933 108.953,55.6599 106,49.5C 98.8874,42.3874 91.7208,35.2208 84.5,28C 100.612,30.7784 110.112,40.2784 113,56.5C 133.256,85.4705 128.423,109.304 98.5,128C 92.5469,129.126 87.2136,127.793 82.5,124C 78.9636,120.799 75.7969,117.299 73,113.5C 59.8689,93.0311 45.2023,73.6978 29,55.5C 24.5859,50.3441 20.9193,44.6775 18,38.5C 15.518,33.531 16.018,29.031 19.5,25C 27.4806,21.5123 35.4806,18.3456 43.5,15.5 Z"/></g>
<g><path style="opacity:1" fill="#3a88d9" d="M 78.5,30.5 C 78.8966,29.475 79.5632,29.3083 80.5,30C 87.3573,37.8559 94.524,45.3559 102,52.5C 103.661,56.1084 103.995,59.7751 103,63.5C 105.584,66.3356 106.751,69.6689 106.5,73.5C 102.525,74.0971 101.025,76.4305 102,80.5C 103.167,82.8333 104.333,85.1667 105.5,87.5C 103.209,89.2878 101.043,91.2878 99,93.5C 98.0443,100.196 97.0443,106.862 96,113.5C 92.4,116.354 89.4,115.687 87,111.5C 85.108,102.528 85.108,93.5283 87,84.5C 87.6667,73.5 87.6667,62.5 87,51.5C 85.7844,43.7504 82.9511,36.7504 78.5,30.5 Z"/></g>
</svg>
